<svg id="expanded" xmlns="http://www.w3.org/2000/svg" viewBox="0 0 26 26"><defs><style>.cls-1{fill:#212126;}</style></defs><title>icon</title><path class="cls-1" d="M18.7,2.93H8.3A3.43,3.43,0,0,0,4.87,6.36V20.64A3.43,3.43,0,0,0,8.3,24.07H18.7a3.43,3.43,0,0,0,3.43-3.43V6.36A3.43,3.43,0,0,0,18.7,2.93Zm1.52,17.72a1.52,1.52,0,0,1-1.52,1.52H8.3a1.52,1.52,0,0,1-1.52-1.52V6.36A1.52,1.52,0,0,1,8.3,4.83H18.7a1.52,1.52,0,0,1,1.52,1.52Z"/><path class="cls-1" d="M9,7v3h9V7Zm8,2H10V8h7Z"/><path class="cls-1" d="M9.66,20h7.69a.66.66,0,0,0,.66-.66V11.66a.66.66,0,0,0-.66-.66H9.66a.66.66,0,0,0-.66.66v7.69A.66.66,0,0,0,9.66,20ZM10,14h1v1H10Zm5,1H14V14h1Zm0,2H14V16h1Zm-3-1h1v1H12Zm1-1H12V14h1Zm-3,1h1v1H10Zm0,3V18h1v1Zm2,0V18h1v1Zm2,0V18h1v1Zm3,0H16V18h1Zm0-2H16V16h1Zm0-2H16V14h1Zm0-3v1H16V12Zm-2,0v1H14V12Zm-2,0v1H12V12Zm-3,0h1v1H10Z"/></svg>