<svg id="expanded" xmlns="http://www.w3.org/2000/svg" viewBox="0 0 26 26"><defs><style>.cls-1{fill:#212126;}</style></defs><title>icon</title><path class="cls-1" d="M13.5,21.25h-2A4.76,4.76,0,0,1,6.75,16.5v-7A4.76,4.76,0,0,1,11.5,4.75h2A4.76,4.76,0,0,1,18.25,9.5v7A4.76,4.76,0,0,1,13.5,21.25Zm-2-15A3.25,3.25,0,0,0,8.25,9.5v7a3.25,3.25,0,0,0,3.25,3.25h2a3.25,3.25,0,0,0,3.25-3.25v-7A3.25,3.25,0,0,0,13.5,6.25Z"/><path class="cls-1" d="M13.59,10A.59.59,0,0,1,13,9.41V6H12V9.41a.59.59,0,0,1-.59.59H8v1h9V10Z"/></svg>