<svg id="expanded" xmlns="http://www.w3.org/2000/svg" viewBox="0 0 26 26"><defs><style>.cls-1{fill:#212126;}</style></defs><title>icon</title><rect class="cls-1" x="11" y="9" width="9" height="1"/><path class="cls-1" d="M6.49,9.84l3.85,2.69a.42.42,0,0,0,.66-.34V6.81a.42.42,0,0,0-.66-.34L6.49,9.16A.42.42,0,0,0,6.49,9.84Z"/><rect class="cls-1" x="5" y="16" width="9" height="1"/><path class="cls-1" d="M18.51,16.84l-3.85,2.69a.42.42,0,0,1-.66-.34V13.81a.42.42,0,0,1,.66-.34l3.85,2.69A.42.42,0,0,1,18.51,16.84Z"/><rect class="cls-1" x="5" y="6" width="1" height="7"/><rect class="cls-1" x="19" y="13" width="1" height="7"/></svg>