<svg id="expanded" xmlns="http://www.w3.org/2000/svg" viewBox="0 0 26 26"><defs><style>.cls-1{fill:#212126;}</style></defs><title>icon</title><path class="cls-1" d="M8,14V7H18v7Zm1-1h8V8H9Z"/><path class="cls-1" d="M17.1,22H8.9a.5.5,0,0,1-.5-.5v-2a.5.5,0,0,1,.44-.5l.68-.09V17.36a.5.5,0,0,1,.5-.5h6a.5.5,0,0,1,.5.5v1.56l.68.09a.5.5,0,0,1,.44.5v2A.5.5,0,0,1,17.1,22ZM9.4,21H16.6V19.94l-.68-.09a.5.5,0,0,1-.44-.5v-1.5h-5v1.5a.5.5,0,0,1-.44.5l-.68.09Z"/><path class="cls-1" d="M18.62,17.61H7.38a2.75,2.75,0,0,1-2.75-2.75V6.25A2.75,2.75,0,0,1,7.38,3.5H18.62a2.75,2.75,0,0,1,2.75,2.75v8.61A2.75,2.75,0,0,1,18.62,17.61ZM7.38,5A1.25,1.25,0,0,0,6.13,6.25v8.61a1.25,1.25,0,0,0,1.25,1.25H18.62a1.25,1.25,0,0,0,1.25-1.25V6.25A1.25,1.25,0,0,0,18.62,5Z"/></svg>