<svg id="expanded" xmlns="http://www.w3.org/2000/svg" viewBox="0 0 26 26"><defs><style>.cls-1{fill:#212126;}</style></defs><title>icon</title><path class="cls-1" d="M22.88,12H19.64a2.48,2.48,0,0,1-2.27-1.29L16.16,8.89C15.69,8.25,15.3,8,14.78,8h-2a.5.5,0,0,1,0-1h2A2.69,2.69,0,0,1,17,8.31l1.22,1.83c.56.8.92.85,1.44.85h3.23a.5.5,0,0,1,0,1Z"/><path class="cls-1" d="M22.83,8H19a.5.5,0,0,1,0-1h3.83a.5.5,0,0,1,0,1Z"/><path class="cls-1" d="M22.88,18a.5.5,0,0,1-.36-.15L19,14.27l-3.45,3.58a.5.5,0,0,1-.71-.7l3.52-3.58a1,1,0,0,1,1.34,0l3.54,3.6a.5.5,0,0,1-.36.85Z"/><path class="cls-1" d="M12.67,12.56c-.39-.48-3.55-4.77-3.55-4.77a1.26,1.26,0,0,0-2.23,0L3.33,12.56A.86.86,0,0,0,4,14H5v3c0,.8.4,1,1.2,1H9.8c.8,0,1.2-.2,1.2-1V14h1A.86.86,0,0,0,12.67,12.56ZM10,13v4H6V13H4.41L8,8l3.59,5Z"/></svg>