<svg id="expanded" xmlns="http://www.w3.org/2000/svg" viewBox="0 0 26 26"><defs><style>.cls-1{fill:#212126;}</style></defs><title>icon</title><path class="cls-1" d="M16.05,5.18H8.95a2.7,2.7,0,0,0-2.7,2.7V19.12a2.7,2.7,0,0,0,2.7,2.7h7.11a2.7,2.7,0,0,0,2.7-2.7V7.88A2.7,2.7,0,0,0,16.05,5.18Zm1.2,13.95a1.2,1.2,0,0,1-1.2,1.2H8.95a1.2,1.2,0,0,1-1.2-1.2V7.88a1.2,1.2,0,0,1,1.2-1.2h7.11a1.2,1.2,0,0,1,1.2,1.2Z"/><path class="cls-1" d="M9,11h7V8H9Zm1-2h5v1H10Z"/><path class="cls-1" d="M9,12.78v5.45a.78.78,0,0,0,.78.78h5.45a.78.78,0,0,0,.78-.78V12.78a.78.78,0,0,0-.78-.78H9.78A.78.78,0,0,0,9,12.78ZM12,13h1v1H12Zm1,3H12V15h1Zm-3-3h1v1H10Zm0,2h1v1H10Zm1,3H10V17h1Zm2,0H12V17h1Zm2,0H14V17h1Zm0-2H14V15h1Zm0-3v1H14V13Z"/></svg>