<svg id="Layer_1" data-name="Layer 1" xmlns="http://www.w3.org/2000/svg" viewBox="0 0 26 26"><title>icon</title><path d="M17.73,9.5a1.84,1.84,0,0,0,1.7-1.8,2.06,2.06,0,0,0-2-1.75,2,2,0,0,0-2,1.65V9.5Z" style="fill:none;stroke:#212126;stroke-miterlimit:10"/><path d="M8.83,9.5a1.84,1.84,0,0,1-1.7-1.8A1.78,1.78,0,0,1,8.82,6,1.69,1.69,0,0,1,10.5,7.6V9.5Z" style="fill:none;stroke:#212126;stroke-miterlimit:10"/><path d="M17.73,14.5a1.8,1.8,0,0,1,1.7,1.75,2,2,0,0,1-2,1.72,2,2,0,0,1-2-1.67V14.5Z" style="fill:none;stroke:#212126;stroke-miterlimit:10"/><path d="M8.83,14.5a1.8,1.8,0,0,0-1.7,1.75A1.76,1.76,0,0,0,8.82,18,1.72,1.72,0,0,0,10.5,16.3V14.5Z" style="fill:none;stroke:#212126;stroke-miterlimit:10"/><rect x="10.5" y="9.5" width="5" height="5" style="fill:none;stroke:#212126;stroke-miterlimit:10"/></svg>