<svg id="expanded" xmlns="http://www.w3.org/2000/svg" viewBox="0 0 26 26"><defs><style>.cls-1{fill:#212126;}</style></defs><title>icon</title><path class="cls-1" d="M17.13,14.54H16v-3h1.12a2.62,2.62,0,1,0-2.62-2.62V10h-3V8.89a2.62,2.62,0,1,0-2.62,2.62H10v3H8.87a2.62,2.62,0,1,0,2.62,2.62V16h3v1.13a2.62,2.62,0,1,0,2.62-2.62Zm-5.65-3h3v3h-3ZM16,8.89A1.12,1.12,0,1,1,17.13,10H16ZM8.87,10A1.12,1.12,0,1,1,10,8.89V10H8.87ZM10,17.16A1.12,1.12,0,1,1,8.87,16H10Zm7.14,1.12A1.12,1.12,0,0,1,16,17.16V16h1.12a1.12,1.12,0,1,1,0,2.24Z"/></svg>