<svg id="expanded" xmlns="http://www.w3.org/2000/svg" viewBox="0 0 26 26"><defs><style>.cls-1{fill:#212126;}</style></defs><title>icon</title><path class="cls-1" d="M13,17.82A4.82,4.82,0,1,1,17.82,13,4.83,4.83,0,0,1,13,17.82Zm0-7.64A2.82,2.82,0,1,0,15.82,13,2.82,2.82,0,0,0,13,10.18Z"/><path class="cls-1" d="M13,6.75A.75.75,0,0,1,12.25,6V4.83a.75.75,0,1,1,1.5,0V6A.75.75,0,0,1,13,6.75Z"/><path class="cls-1" d="M13,21.92a.75.75,0,0,1-.75-.75V20a.75.75,0,0,1,1.5,0v1.18A.75.75,0,0,1,13,21.92Z"/><path class="cls-1" d="M21.17,13.75H20a.75.75,0,0,1,0-1.5h1.18a.75.75,0,1,1,0,1.5Z"/><path class="cls-1" d="M6,13.75H4.83a.75.75,0,1,1,0-1.5H6a.75.75,0,0,1,0,1.5Z"/><path class="cls-1" d="M18.78,19.53a.75.75,0,0,1-.53-.22l-.83-.83a.75.75,0,0,1,1.06-1.06l.83.83a.75.75,0,0,1-.53,1.28Z"/><path class="cls-1" d="M8.05,8.8a.75.75,0,0,1-.53-.22l-.83-.83A.75.75,0,0,1,7.75,6.69l.83.83A.75.75,0,0,1,8.05,8.8Z"/><path class="cls-1" d="M7.22,19.53a.75.75,0,0,1-.53-1.28l.83-.83a.75.75,0,1,1,1.06,1.06l-.83.83A.75.75,0,0,1,7.22,19.53Z"/><path class="cls-1" d="M17.95,8.8a.75.75,0,0,1-.53-1.28l.83-.83a.75.75,0,1,1,1.06,1.06l-.83.83A.75.75,0,0,1,17.95,8.8Z"/></svg>