<svg id="expanded" xmlns="http://www.w3.org/2000/svg" viewBox="0 0 26 26"><defs><style>.cls-1{fill:#212126;}</style></defs><title>icon</title><path class="cls-1" d="M7.6,20.25A1.85,1.85,0,0,1,5.75,18.4V6.6A1.85,1.85,0,0,1,7.6,4.75H17.4A1.85,1.85,0,0,1,19.25,6.6V18.4a1.85,1.85,0,0,1-1.85,1.85Zm0-14a.35.35,0,0,0-.35.35V18.4a.35.35,0,0,0,.35.35H17.4a.35.35,0,0,0,.35-.35V6.6a.35.35,0,0,0-.35-.35Z"/><path class="cls-1" d="M15.5,10h-6a.5.5,0,0,1,0-1h6a.5.5,0,0,1,0,1Z"/><path class="cls-1" d="M15.5,13h-6a.5.5,0,0,1,0-1h6a.5.5,0,0,1,0,1Z"/><path class="cls-1" d="M15.5,16h-6a.5.5,0,0,1,0-1h6a.5.5,0,0,1,0,1Z"/></svg>