<svg xmlns="http://www.w3.org/2000/svg" xmlns:xlink="http://www.w3.org/1999/xlink" viewBox="0 0 50 450"><defs><style>.cls-1,.cls-2,.cls-4,.cls-7{fill:none;}.cls-2,.cls-4,.cls-7{stroke:#fff;stroke-miterlimit:10;}.cls-3{fill:#fff;}.cls-4,.cls-7{stroke-width:2px;}.cls-5{clip-path:url(#clip-path);}.cls-6{clip-path:url(#clip-path-2);}.cls-7{stroke-linecap:round;}</style><clipPath id="clip-path"><polygon class="cls-1" points="41 266 41 255 31 255 41 266"/></clipPath><clipPath id="clip-path-2"><polygon class="cls-1" points="41 268 32 268 32 259 41 268"/></clipPath></defs><title>ergodox</title><g id="Layer_1" data-name="Layer 1"><line class="cls-2" x1="5" y1="12.5" x2="18" y2="12.5"/><polygon class="cls-3" points="23.74 12.22 17.74 15.57 17.74 9.29 23.74 12.22"/><line class="cls-2" x1="23" y1="37.5" x2="10" y2="37.5"/><polygon class="cls-3" points="3.99 37.29 9.99 40.64 9.99 34.36 3.99 37.29"/><polyline class="cls-4" points="37 283.74 32 287.99 37 292.54"/><line class="cls-2" x1="12.5" y1="75" x2="12.5" y2="62"/><polygon class="cls-3" points="12.73 55.93 8.85 61.93 16.13 61.93 12.73 55.93"/><line class="cls-2" x1="12.5" y1="80" x2="12.5" y2="93"/><polygon class="cls-3" points="12.39 99.07 16.27 93.07 8.99 93.07 12.39 99.07"/><line class="cls-2" x1="20" y1="107.5" x2="10" y2="107.5"/><polygon class="cls-3" points="4.1 107.29 10.09 111.18 10.09 103.89 4.1 107.29"/><line class="cls-2" x1="5" y1="118.5" x2="15" y2="118.5"/><polygon class="cls-3" points="20.99 118.29 14.99 122.18 14.99 114.89 20.99 118.29"/><line class="cls-2" x1="3.5" y1="104" x2="3.5" y2="111"/><line class="cls-2" x1="21.5" y1="115" x2="21.5" y2="122"/><polyline class="cls-2" points="11 139.5 20.5 139.5 20.5 133"/><polygon class="cls-3" points="5.1 139.29 11.09 143.18 11.09 135.89 5.1 139.29"/><polygon class="cls-2" points="9.5 163.5 9.5 169.5 15.5 169.5 15.5 163.5 17.99 163.5 12.24 155.75 6.49 163.5 9.5 163.5"/><polygon class="cls-2" points="5.5 338.5 5.5 342.5 9.5 342.5 9.5 338.5 10.99 338.5 7.24 333.45 3.49 338.5 5.5 338.5"/><path class="cls-2" d="M3,184.5H7a2.12,2.12,0,0,1,1.56.83l3.63,5.35a2.12,2.12,0,0,0,1.56.83H21"/><line class="cls-2" x1="13" y1="184.5" x2="21" y2="184.5"/><path class="cls-2" d="M12,332.5h1.77a2.27,2.27,0,0,1,1.6.8l1.43,2.15a2.6,2.6,0,0,0,1.6,1H22"/><line class="cls-2" x1="18" y1="332.5" x2="22" y2="332.5"/><path class="cls-2" d="M3.29,288.2a1,1,0,0,1,0-1.4L8,282.2a2.82,2.82,0,0,1,1.71-.7H20.9c.55,0,.6.45.6,1v10c0,.55-.05,1-.6,1H9.67A2.82,2.82,0,0,1,8,292.8Z"/><line class="cls-2" x1="11.99" y1="285" x2="16.99" y2="290"/><line class="cls-2" x1="16.99" y1="285" x2="11.99" y2="290"/><circle class="cls-2" cx="12.99" cy="313" r="6"/><line class="cls-2" x1="16.99" y1="309" x2="8.49" y2="317.5"/><polyline class="cls-2" points="8.99 263.5 12.99 260 16.99 263.5"/><polyline class="cls-2" points="12.99 342.5 16.99 339 20.99 342.5"/><polyline class="cls-2" points="6.5 361 6.5 365.5 18.5 365.5 18.5 361"/><path class="cls-2" d="M16.88,235A1.88,1.88,0,1,0,15,233.17V235Z"/><path class="cls-2" d="M8,235a1.88,1.88,0,1,1,1.88-1.88V235Z"/><path class="cls-2" d="M16.88,239.87A1.88,1.88,0,1,1,15,241.75v-1.88Z"/><path class="cls-2" d="M8,239.87a1.88,1.88,0,1,0,1.88,1.88v-1.88Z"/><rect class="cls-2" x="10.14" y="235.15" width="4.7" height="4.7"/><rect class="cls-2" x="7.5" y="405.5" width="10" height="15" rx="4" ry="4"/><line class="cls-2" x1="12.5" y1="411" x2="12.5" y2="406"/><line class="cls-2" x1="8" y1="410.5" x2="17" y2="410.5"/><circle class="cls-2" cx="12.49" cy="437.5" r="7.5"/><line class="cls-2" x1="9.99" y1="435" x2="12.99" y2="439"/><line class="cls-2" x1="14.99" y1="435" x2="11.99" y2="439"/><line class="cls-2" x1="9.5" y1="434" x2="9.5" y2="441"/><line class="cls-2" x1="15.5" y1="434" x2="15.5" y2="441"/><polygon class="cls-2" points="12 389 5 385.57 12 383 19 385.57 12 389"/><polyline class="cls-2" points="18.99 387.93 12 392 4.99 387.93"/><polyline class="cls-2" points="18.99 390.53 11.99 394.5 4.99 390.53"/><polygon class="cls-3" points="37.49 7 32.99 17 37.49 15 41.99 17 37.49 7"/><polygon class="cls-3" points="37.49 43 41.99 33 37.49 35 32.99 33 37.49 43"/><polygon class="cls-3" points="31.99 62.5 41.99 67 39.99 62.5 41.99 58 31.99 62.5"/><polygon class="cls-3" points="29.8 112.5 37 116.55 37 108.45 29.8 112.5"/><polygon class="cls-3" points="36.8 112.5 44 116.55 44 108.45 36.8 112.5"/><polygon class="cls-3" points="44.2 137.5 37 141.55 37 133.45 44.2 137.5"/><polygon class="cls-3" points="42 162.5 34 167 34 158 42 162.5"/><rect class="cls-3" x="30" y="210" width="3" height="5"/><rect class="cls-3" x="43" y="210" width="1" height="5"/><polygon class="cls-3" points="37 218 33 215 33 210 37 207 38 207 38 218 37 218"/><polygon class="cls-3" points="37.2 137.5 30 141.55 30 133.45 37.2 137.5"/><polygon class="cls-3" points="42.99 87.5 32.99 83 34.99 87.5 32.99 92 42.99 87.5"/><rect class="cls-3" x="41" y="212" width="5" height="1"/><rect class="cls-3" x="30" y="235" width="3" height="5"/><polygon class="cls-3" points="37 243 33 240 33 235 37 232 38 232 38 243 37 243"/><rect class="cls-3" x="41" y="237" width="5" height="1"/><g class="cls-5"><polygon class="cls-3" points="39 257 35 260 32 260 32 265 35 265 39 268 40 268 40 257 39 257"/></g><g class="cls-6"><polygon class="cls-3" points="39 257 35 260 32 260 32 265 35 265 39 268 40 268 40 257 39 257"/></g><line class="cls-2" x1="33" y1="257" x2="42" y2="266"/><line class="cls-4" x1="43" y1="288" x2="33" y2="288"/><polyline class="cls-4" points="37 308.74 42 312.99 37 317.54"/><polygon class="cls-3" points="39 337 44 337 44 332 39 337"/><line class="cls-4" x1="31" y1="313" x2="41" y2="313"/><path class="cls-7" d="M41.72,340.13a5.74,5.74,0,1,1,.44-4.79"/><line class="cls-7" x1="41" y1="358.9" x2="34" y2="366.1"/><line class="cls-7" x1="34" y1="358.9" x2="41" y2="366.1"/><polygon class="cls-3" points="37.5 379.75 39.21 385 44.73 385 40.26 388.33 41.97 393.62 37.5 390.39 33.03 393.65 34.74 388.32 30.27 385 35.79 385 37.5 379.75"/><polygon class="cls-3" points="43 412 31 412 31 411 37 405 43 411 43 412"/><polygon class="cls-3" points="32 412 32 418 36 418 36 415 38 415 38 418 42 418 42 412 32 412"/></g><g id="Layer_3" data-name="Layer 3"><rect class="cls-3" x="6" y="206" width="6" height="6"/><rect class="cls-3" x="13" y="206" width="6" height="6"/><rect class="cls-3" x="6" y="213" width="6" height="6"/><rect class="cls-3" x="13" y="213" width="6" height="6"/><rect class="cls-3" x="34" y="184" width="7" height="7"/></g></svg>