<svg id="Layer_1" data-name="Layer 1" xmlns="http://www.w3.org/2000/svg" xmlns:xlink="http://www.w3.org/1999/xlink" viewBox="0 0 1845 1000"><defs><style>.cls-1{fill:#33333c;}.cls-2{fill:#b4b4c2;}.cls-3{opacity:0.5;}.cls-4{fill:#595969;}.cls-5{opacity:0.3;}.cls-10,.cls-6{fill:none;stroke-miterlimit:10;}.cls-6{stroke:#212126;}.cls-7{font-size:12px;}.cls-7,.cls-8{fill:#f2f2f2;font-family:OpenSans, Open Sans;}.cls-8{font-size:14px;}.cls-9{fill:#7ebdf7;}.cls-10{stroke:#ffb24c;stroke-width:2px;}</style><symbol id="key.long" data-name="key.long" viewBox="0 0 94 53"><polygon class="cls-1" points="5 51 5 1 90 1 90 51 5 51"/><polygon points="7.14 53 86.59 53 79.5 41 14.11 41 7.14 53"/><polygon class="cls-2" points="86.59 0 7.14 0 14.23 12 79.63 12 86.59 0"/><path class="cls-3" d="M3,1a10.7,10.7,0,0,1,8.34,8.34c.82,4.11,2.11,31.14-.58,35.39-3.45,5.47-6,6.33-6,6.33S2.1,47.3.66,30.61A90,90,0,0,1,3,1Z"/><path class="cls-3" d="M90.87,1a10.7,10.7,0,0,0-8.34,8.34c-.82,4.11-2.11,31.14.58,35.39,3.45,5.47,6,6.33,6,6.33s2.59-3.74,4-20.43A90,90,0,0,0,90.87,1Z"/><rect class="cls-4" x="10" y="6" width="75" height="40" rx="8" ry="8"/></symbol><symbol id="key.short2" data-name="key.short2" viewBox="0 0 94 55"><polygon class="cls-1" points="5 51 5 1 58 1 58 51 5 51"/><polygon points="7.59 53 54.04 53 46.95 41 14.56 41 7.59 53"/><polygon class="cls-2" points="54.04 0 7.59 0 14.68 12 47.07 12 54.04 0"/><path class="cls-5" d="M3.41,1.41a10.7,10.7,0,0,1,8.34,8.34c.82,4.11,2.11,31.14-.58,35.39-3.45,5.47-6,6.33-6,6.33S2.55,47.73,1.11,31A90,90,0,0,1,3.41,1.41Z"/><path class="cls-5" d="M58.31,1.41A10.7,10.7,0,0,0,50,9.75c-.82,4.11-2.11,31.14.58,35.39,3.45,5.47,6,6.33,6,6.33s2.59-3.74,4-20.43A90,90,0,0,0,58.31,1.41Z"/><rect class="cls-4" x="10.45" y="6.44" width="42" height="40" rx="8" ry="8"/></symbol><symbol id="key.long.2" data-name="key.long.2" viewBox="0 0 94 81"><polygon class="cls-1" points="5 79 5 1 57 1 57 79 5 79"/><polygon points="7.59 81 54.04 81 46.94 69 14.55 69 7.59 81"/><polygon class="cls-2" points="54.04 0 7.59 0 14.68 12 47.07 12 54.04 0"/><path class="cls-3" d="M3.41,1.41a10.7,10.7,0,0,1,8.34,8.34c.82,4.11,2.11,59.14-.58,63.39-3.45,5.47-6,6.33-6,6.33S2.55,75.73,1.11,59,3.41,1.41,3.41,1.41Z"/><path class="cls-3" d="M58.31,1.41A10.7,10.7,0,0,0,50,9.75c-.82,4.11-2.11,59.14.58,63.39,3.45,5.47,6,6.33,6,6.33s2.59-3.74,4-20.43S58.31,1.41,58.31,1.41Z"/><rect class="cls-4" x="10.44" y="6.44" width="42" height="68" rx="8" ry="8"/></symbol><symbol id="key.longer.2" data-name="key.longer.2" viewBox="0 0 94 105"><polygon class="cls-1" points="5 103 5 0 59 0 59 103 5 103"/><polygon points="8.54 105 54.99 105 47.9 93 15.51 93 8.54 105"/><polygon class="cls-2" points="54.99 1 8.54 1 15.63 13 48.02 13 54.99 1"/><path class="cls-3" d="M4.37,1.3a10.7,10.7,0,0,1,8.34,8.34c.82,4.11,2.11,82.14-.58,86.39-3.45,5.47-6,6.33-6,6.33s-2.59-3.74-4-20.43S4.37,1.3,4.37,1.3Z"/><path class="cls-3" d="M59.27,1.3a10.7,10.7,0,0,0-8.34,8.34c-.82,4.11-2.11,82.14.58,86.39,3.45,5.47,6,6.33,6,6.33s2.59-3.74,4-20.43S59.27,1.3,59.27,1.3Z"/><rect class="cls-4" x="11.4" y="6.33" width="42" height="91" rx="8" ry="8"/></symbol></defs><title>ergodox</title><rect class="cls-1" x="0.25" y="-1.25" width="1845" height="1002"/><rect class="cls-4" x="15" y="18.5" width="205" height="32" rx="4" ry="4"/><rect class="cls-6" x="15" y="18.5" width="205" height="32" rx="4" ry="4"/><use id="key.long-3" data-name="key.long" width="94" height="53" transform="translate(28 156)" xlink:href="#key.long"/><use id="key.short2-3" data-name="key.short2" width="94" height="55" transform="translate(116.55 155.56)" xlink:href="#key.short2"/><use id="key.short2-6" data-name="key.short2" width="94" height="55" transform="translate(116.55 323.56)" xlink:href="#key.short2"/><use id="key.short2-9" data-name="key.short2" width="94" height="55" transform="translate(62.96 379.56)" xlink:href="#key.short2"/><use id="key.short2-12" data-name="key.short2" width="94" height="55" transform="translate(116.55 379.56)" xlink:href="#key.short2"/><use id="key.short2-15" data-name="key.short2" width="94" height="55" transform="translate(171.98 362.56)" xlink:href="#key.short2"/><use id="key.short2-18" data-name="key.short2" width="94" height="55" transform="translate(116.55 268.23)" xlink:href="#key.short2"/><use id="key.short2-21" data-name="key.short2" width="94" height="55" transform="translate(116.55 211.89)" xlink:href="#key.short2"/><use id="key.short2-24" data-name="key.short2" width="94" height="55" transform="translate(171.98 140.56)" xlink:href="#key.short2"/><use id="key.short2-27" data-name="key.short2" width="94" height="55" transform="translate(171.98 308.56)" xlink:href="#key.short2"/><use id="key.short2-30" data-name="key.short2" width="94" height="55" transform="translate(171.98 253.23)" xlink:href="#key.short2"/><use id="key.short2-33" data-name="key.short2" width="94" height="55" transform="translate(171.98 196.89)" xlink:href="#key.short2"/><use id="key.short2-36" data-name="key.short2" width="94" height="55" transform="translate(228.55 357.56)" xlink:href="#key.short2"/><use id="key.short2-39" data-name="key.short2" width="94" height="55" transform="translate(228.55 135.56)" xlink:href="#key.short2"/><use id="key.short2-43" data-name="key.short2" width="94" height="55" transform="translate(228.55 303.56)" xlink:href="#key.short2"/><use id="key.short2-46" data-name="key.short2" width="94" height="55" transform="translate(228.55 248.23)" xlink:href="#key.short2"/><use id="key.short2-49" data-name="key.short2" width="94" height="55" transform="translate(228.55 191.89)" xlink:href="#key.short2"/><use id="key.short2-52" data-name="key.short2" width="94" height="55" transform="translate(282.98 361.56)" xlink:href="#key.short2"/><use id="key.short2-55" data-name="key.short2" width="94" height="55" transform="translate(282.98 139.56)" xlink:href="#key.short2"/><use id="key.short2-58" data-name="key.short2" width="94" height="55" transform="matrix(0.8, 0.6, -0.6, 0.8, 481.58, 348.02)" xlink:href="#key.short2"/><use id="key.short2-61" data-name="key.short2" width="94" height="55" transform="matrix(0.8, 0.6, -0.6, 0.8, 525.67, 380.27)" xlink:href="#key.short2"/><use id="key.short2-64" data-name="key.short2" width="94" height="55" transform="matrix(0.8, 0.6, -0.6, 0.8, 491.96, 424.6)" xlink:href="#key.short2"/><use id="key.short2-67" data-name="key.short2" width="94" height="55" transform="matrix(0.8, 0.6, -0.6, 0.8, 461.05, 467.19)" xlink:href="#key.short2"/><use id="key.short2-70" data-name="key.short2" width="94" height="55" transform="translate(282.98 307.56)" xlink:href="#key.short2"/><use id="key.short2-73" data-name="key.short2" width="94" height="55" transform="translate(282.98 252.23)" xlink:href="#key.short2"/><use id="key.short2-76" data-name="key.short2" width="94" height="55" transform="translate(282.98 195.89)" xlink:href="#key.short2"/><use id="key.short2-79" data-name="key.short2" width="94" height="55" transform="translate(338.55 139.56)" xlink:href="#key.short2"/><use id="key.short2-82" data-name="key.short2" width="94" height="55" transform="translate(394.55 139.56)" xlink:href="#key.short2"/><use id="key.long.2-3" data-name="key.long.2" width="94" height="81" transform="translate(394.56 194.56)" xlink:href="#key.long.2"/><use id="key.long.2-7" data-name="key.long.2" width="94" height="81" transform="translate(394.56 279.39)" xlink:href="#key.long.2"/><use id="key.longer.2-3" data-name="key.longer.2" width="94" height="105" transform="matrix(0.78, 0.62, -0.62, 0.78, 449.62, 389.14)" xlink:href="#key.longer.2"/><use id="key.longer.2-6" data-name="key.longer.2" width="94" height="105" transform="matrix(0.78, 0.62, -0.62, 0.78, 405.87, 354.97)" xlink:href="#key.longer.2"/><use id="key.short2-85" data-name="key.short2" width="94" height="55" transform="translate(338.55 307.56)" xlink:href="#key.short2"/><use id="key.short2-88" data-name="key.short2" width="94" height="55" transform="translate(338.55 252.23)" xlink:href="#key.short2"/><use id="key.short2-91" data-name="key.short2" width="94" height="55" transform="translate(338.55 195.89)" xlink:href="#key.short2"/><use id="key.long-6" data-name="key.long" width="94" height="53" transform="translate(28 212)" xlink:href="#key.long"/><use id="key.long-9" data-name="key.long" width="94" height="53" transform="translate(28 268)" xlink:href="#key.long"/><use id="key.long-12" data-name="key.long" width="94" height="53" transform="translate(28 324)" xlink:href="#key.long"/><text class="cls-7" transform="translate(48 183.2)">Tab</text><text class="cls-7" transform="translate(136 194.2)">1</text><text class="cls-7" transform="translate(136 179.2)">!</text><use id="key.long-15" data-name="key.long" width="94" height="53" transform="matrix(-1, 0, 0, 1, 1152.56, 156)" xlink:href="#key.long"/><use id="key.short2-94" data-name="key.short2" width="94" height="55" transform="matrix(-1, 0, 0, 1, 1064.01, 155.56)" xlink:href="#key.short2"/><use id="key.short2-97" data-name="key.short2" width="94" height="55" transform="matrix(-1, 0, 0, 1, 1064.01, 323.56)" xlink:href="#key.short2"/><use id="key.short2-100" data-name="key.short2" width="94" height="55" transform="matrix(-1, 0, 0, 1, 1117.6, 379.56)" xlink:href="#key.short2"/><use id="key.short2-103" data-name="key.short2" width="94" height="55" transform="matrix(-1, 0, 0, 1, 1064.01, 379.56)" xlink:href="#key.short2"/><use id="key.short2-106" data-name="key.short2" width="94" height="55" transform="matrix(-1, 0, 0, 1, 1008.58, 362.56)" xlink:href="#key.short2"/><use id="key.short2-109" data-name="key.short2" width="94" height="55" transform="matrix(-1, 0, 0, 1, 1064.01, 268.23)" xlink:href="#key.short2"/><use id="key.short2-112" data-name="key.short2" width="94" height="55" transform="matrix(-1, 0, 0, 1, 1064.01, 211.89)" xlink:href="#key.short2"/><use id="key.short2-115" data-name="key.short2" width="94" height="55" transform="matrix(-1, 0, 0, 1, 1008.58, 140.56)" xlink:href="#key.short2"/><use id="key.short2-118" data-name="key.short2" width="94" height="55" transform="matrix(-1, 0, 0, 1, 1008.58, 308.56)" xlink:href="#key.short2"/><use id="key.short2-121" data-name="key.short2" width="94" height="55" transform="matrix(-1, 0, 0, 1, 1008.58, 253.23)" xlink:href="#key.short2"/><use id="key.short2-124" data-name="key.short2" width="94" height="55" transform="matrix(-1, 0, 0, 1, 1008.58, 196.89)" xlink:href="#key.short2"/><use id="key.short2-127" data-name="key.short2" width="94" height="55" transform="matrix(-1, 0, 0, 1, 952.01, 357.56)" xlink:href="#key.short2"/><use id="key.short2-130" data-name="key.short2" width="94" height="55" transform="matrix(-1, 0, 0, 1, 952.01, 135.56)" xlink:href="#key.short2"/><use id="key.short2-133" data-name="key.short2" width="94" height="55" transform="matrix(-1, 0, 0, 1, 952.01, 303.56)" xlink:href="#key.short2"/><use id="key.short2-136" data-name="key.short2" width="94" height="55" transform="matrix(-1, 0, 0, 1, 952.01, 248.23)" xlink:href="#key.short2"/><use id="key.short2-139" data-name="key.short2" width="94" height="55" transform="matrix(-1, 0, 0, 1, 952.01, 191.89)" xlink:href="#key.short2"/><use id="key.short2-142" data-name="key.short2" width="94" height="55" transform="matrix(-1, 0, 0, 1, 897.58, 361.56)" xlink:href="#key.short2"/><use id="key.short2-145" data-name="key.short2" width="94" height="55" transform="matrix(-1, 0, 0, 1, 897.58, 139.56)" xlink:href="#key.short2"/><use id="key.short2-148" data-name="key.short2" width="94" height="55" transform="matrix(-0.8, 0.6, 0.6, 0.8, 698.97, 348.02)" xlink:href="#key.short2"/><use id="key.short2-151" data-name="key.short2" width="94" height="55" transform="matrix(-0.8, 0.6, 0.6, 0.8, 654.89, 380.27)" xlink:href="#key.short2"/><use id="key.short2-154" data-name="key.short2" width="94" height="55" transform="matrix(-0.8, 0.6, 0.6, 0.8, 688.6, 424.6)" xlink:href="#key.short2"/><use id="key.short2-157" data-name="key.short2" width="94" height="55" transform="matrix(-0.8, 0.6, 0.6, 0.8, 719.51, 467.19)" xlink:href="#key.short2"/><use id="key.short2-160" data-name="key.short2" width="94" height="55" transform="matrix(-1, 0, 0, 1, 897.58, 307.56)" xlink:href="#key.short2"/><use id="key.short2-163" data-name="key.short2" width="94" height="55" transform="matrix(-1, 0, 0, 1, 897.58, 252.23)" xlink:href="#key.short2"/><use id="key.short2-166" data-name="key.short2" width="94" height="55" transform="matrix(-1, 0, 0, 1, 897.58, 195.89)" xlink:href="#key.short2"/><use id="key.short2-169" data-name="key.short2" width="94" height="55" transform="matrix(-1, 0, 0, 1, 842.01, 139.56)" xlink:href="#key.short2"/><use id="key.short2-172" data-name="key.short2" width="94" height="55" transform="matrix(-1, 0, 0, 1, 786.01, 139.56)" xlink:href="#key.short2"/><use id="key.long.2-10" data-name="key.long.2" width="94" height="81" transform="matrix(-1, 0, 0, 1, 786, 194.56)" xlink:href="#key.long.2"/><use id="key.long.2-13" data-name="key.long.2" width="94" height="81" transform="matrix(-1, 0, 0, 1, 786, 279.39)" xlink:href="#key.long.2"/><use id="key.longer.2-9" data-name="key.longer.2" width="94" height="105" transform="matrix(-0.78, 0.62, 0.62, 0.78, 730.94, 389.14)" xlink:href="#key.longer.2"/><use id="key.longer.2-12" data-name="key.longer.2" width="94" height="105" transform="matrix(-0.78, 0.62, 0.62, 0.78, 774.69, 354.97)" xlink:href="#key.longer.2"/><use id="key.short2-175" data-name="key.short2" width="94" height="55" transform="matrix(-1, 0, 0, 1, 842.01, 307.56)" xlink:href="#key.short2"/><use id="key.short2-178" data-name="key.short2" width="94" height="55" transform="matrix(-1, 0, 0, 1, 842.01, 252.23)" xlink:href="#key.short2"/><use id="key.short2-181" data-name="key.short2" width="94" height="55" transform="matrix(-1, 0, 0, 1, 842.01, 195.89)" xlink:href="#key.short2"/><use id="key.long-18" data-name="key.long" width="94" height="53" transform="matrix(-1, 0, 0, 1, 1152.56, 212)" xlink:href="#key.long"/><use id="key.long-21" data-name="key.long" width="94" height="53" transform="matrix(-1, 0, 0, 1, 1152.56, 268)" xlink:href="#key.long"/><use id="key.long-24" data-name="key.long" width="94" height="53" transform="matrix(-1, 0, 0, 1, 1152.56, 324)" xlink:href="#key.long"/><text class="cls-8" transform="translate(27 40)">Layer 0</text><rect class="cls-9" x="1094" y="18.5" width="106.35" height="32" rx="4" ry="4"/><rect class="cls-6" x="1094" y="18.5" width="106.35" height="32" rx="4" ry="4"/><text class="cls-8" transform="translate(1113.92 40)">Download</text><rect class="cls-10" x="27" y="151" width="95" height="60" rx="8" ry="8"/></svg>