<svg id="Layer_1" data-name="Layer 1" xmlns="http://www.w3.org/2000/svg" xmlns:xlink="http://www.w3.org/1999/xlink" viewBox="0 0 75 450"><defs><style>.cls-1,.cls-2,.cls-4,.cls-5{fill:none;}.cls-2,.cls-4,.cls-5{stroke:#212126;stroke-miterlimit:10;}.cls-3{fill:#212126;}.cls-4,.cls-5{stroke-width:2px;}.cls-5{stroke-linecap:round;}.cls-6{clip-path:url(#clip-path);}.cls-7{clip-path:url(#clip-path-2);}</style><clipPath id="clip-path"><polygon class="cls-1" points="41 266 41 255 31 255 41 266"/></clipPath><clipPath id="clip-path-2"><polygon class="cls-1" points="41 268 32 268 32 259 41 268"/></clipPath></defs><title>icon</title><rect class="cls-2" x="57.5" y="81.5" width="10" height="8" rx="0.01" ry="0.01"/><rect class="cls-2" x="55.5" y="93.5" width="14" height="2"/><g id="mail"><rect class="cls-2" x="55.5" y="54.5" width="14" height="16" rx="3" ry="3"/></g><rect class="cls-2" x="56.5" y="130.5" width="12" height="14"/><path class="cls-2" d="M55.5,93V81.5c0-1.1,1.4-2,2.5-2H68c1.1,0,1.5.9,1.5,2V93"/><line class="cls-2" x1="4" y1="12.5" x2="18" y2="12.5"/><polygon class="cls-3" points="22 12.2 15 15.6 15 9.3 22 12.2"/><line class="cls-2" x1="21" y1="37.5" x2="7" y2="37.5"/><polygon class="cls-3" points="3 37.3 10 40.6 10 34.4 3 37.3"/><g id="arrow-up"><line class="cls-2" x1="12.5" y1="71" x2="12.5" y2="58"/><polygon class="cls-3" points="12.7 53 8.8 60 16.1 60 12.7 53"/></g><g id="arrow-down"><line class="cls-2" x1="12.5" y1="79" x2="12.5" y2="92"/><polygon class="cls-3" points="12.4 97 16.3 90 9 90 12.4 97"/></g><g id="tab"><line class="cls-2" x1="20" y1="107.5" x2="10" y2="107.5"/><polygon class="cls-3" points="4 107.3 10 111.2 10 103.9 4 107.3"/><line class="cls-2" x1="5" y1="118.5" x2="15" y2="118.5"/><polygon class="cls-3" points="21 118.3 15 122.2 15 114.9 21 118.3"/><line class="cls-2" x1="3.5" y1="104" x2="3.5" y2="111"/><line class="cls-2" x1="21.5" y1="115" x2="21.5" y2="122"/></g><g id="enter"><polyline class="cls-2" points="11 139.5 20.5 139.5 20.5 133"/><polygon class="cls-3" points="5 139.3 11 143.2 11 135.9 5 139.3"/></g><polygon id="shift" class="cls-2" points="9.5 163.5 9.5 169.5 15.5 169.5 15.5 163.5 18 163.5 12.2 155.8 6.5 163.5 9.5 163.5"/><g id="alt"><path class="cls-2" d="M3,184.5H7a2.26,2.26,0,0,1,1.6.8l3.6,5.35a2,2,0,0,0,1.6.85H21"/><line class="cls-2" x1="13" y1="184.5" x2="21" y2="184.5"/></g><g id="backspace"><path class="cls-2" d="M3.3,288.2a1,1,0,0,1,0-1.4L8,282.2a2.84,2.84,0,0,1,1.7-.7H20.9c.5,0,.6.5.6,1v10c0,.5-.1,1-.6,1H9.7a2.61,2.61,0,0,1-1.7-.7Z"/><line class="cls-2" x1="12" y1="285" x2="17" y2="290"/><line class="cls-2" x1="17" y1="285" x2="12" y2="290"/></g><g id="banned"><circle class="cls-2" cx="13" cy="313" r="6"/><line class="cls-2" x1="17" y1="309" x2="8.5" y2="317.5"/></g><g id="carat"><polyline class="cls-2" points="9 263.5 13 260 17 263.5"/></g><g id="meh"><polygon class="cls-2" points="5.5 338.5 5.5 342.5 9.5 342.5 9.5 338.5 11 338.5 7.2 333.4 3.5 338.5 5.5 338.5"/><path class="cls-2" d="M12,332.5h1.8a2.47,2.47,0,0,1,1.6.8l1.4,2.2a2.75,2.75,0,0,0,1.6,1H22"/><line class="cls-2" x1="18" y1="332.5" x2="22" y2="332.5"/><polyline class="cls-2" points="13 342.5 17 339 21 342.5"/></g><polyline class="cls-2" points="6.5 361 6.5 365.5 18.5 365.5 18.5 361"/><g id="cmd"><path class="cls-2" d="M16.4,235.5a1.84,1.84,0,0,0,1.7-1.8A1.89,1.89,0,0,0,16.3,232a1.8,1.8,0,0,0-1.8,1.65v1.9Z"/><path class="cls-2" d="M8.5,235.5a1.84,1.84,0,0,1-1.7-1.8A1.94,1.94,0,0,1,8.65,232a1.85,1.85,0,0,1,1.85,1.65v1.9Z"/><path class="cls-2" d="M16.4,239.5a1.8,1.8,0,0,1,1.7,1.75A1.87,1.87,0,0,1,16.3,243a1.82,1.82,0,0,1-1.8-1.67v-1.8Z"/><path class="cls-2" d="M8.5,239.5a1.8,1.8,0,0,0-1.7,1.75A1.91,1.91,0,0,0,8.65,243a1.87,1.87,0,0,0,1.85-1.67v-1.8Z"/><rect class="cls-2" x="10.5" y="235.5" width="4" height="4"/></g><g id="mouse-button"><path class="cls-2" d="M17.5,416.5a4,4,0,0,1-4,4h-2a4,4,0,0,1-4-4v-7a4,4,0,0,1,4-4h2a4,4,0,0,1,4,4Z"/><line class="cls-2" x1="12.5" y1="411" x2="12.5" y2="406"/><line class="cls-2" x1="8" y1="410.5" x2="17" y2="410.5"/></g><g id="macro"><circle class="cls-2" cx="12.5" cy="437.5" r="7.5"/><line class="cls-2" x1="10" y1="435" x2="13" y2="439"/><line class="cls-2" x1="15" y1="435" x2="12" y2="439"/><line class="cls-2" x1="9.5" y1="434" x2="9.5" y2="441"/><line class="cls-2" x1="15.5" y1="434" x2="15.5" y2="441"/></g><g id="layer"><polygon id="layer-cap" class="cls-2" points="12 389 5 385.6 12 383 19 385.6 12 389"/><polyline class="cls-2" points="19 387.9 12 392 5 387.9"/><polyline class="cls-2" points="19 390.5 12 394.5 5 390.5"/></g><g id="mouse-up"><polygon class="cls-3" points="37.5 7 33 17 37.5 15 42 17 37.5 7"/></g><g id="mouse-down"><polygon class="cls-3" points="37.5 43 42 33 37.5 35 33 33 37.5 43"/></g><g id="mouse-left"><polygon class="cls-3" points="32 62.5 42 67 40 62.5 42 58 32 62.5"/></g><g id="mouse-right"><polygon class="cls-3" points="43 87.5 33 83 35 87.5 33 92 43 87.5"/></g><g id="backward"><polyline class="cls-4" points="37 283.7 32 288 37 292.5"/><line class="cls-4" x1="43" y1="288" x2="33" y2="288"/></g><g id="forward"><polyline class="cls-4" points="37 308.7 42 313 37 317.5"/><line class="cls-4" x1="31" y1="313" x2="41" y2="313"/></g><g id="reload"><polygon class="cls-3" points="39 337 44 337 44 332 39 337"/><path class="cls-5" d="M41.7,340.1a5.76,5.76,0,0,1-5,2.9,5.7,5.7,0,1,1,5.4-7.6"/></g><g id="stop"><line class="cls-5" x1="41" y1="358.9" x2="34" y2="366.1"/><line class="cls-5" x1="34" y1="358.9" x2="41" y2="366.1"/></g><polygon class="cls-3" points="37.5 379.8 39.2 385 44.7 385 40.3 388.3 42 393.6 37.5 390.4 33 393.6 34.7 388.3 30.3 385 35.8 385 37.5 379.8"/><g id="home"><polygon class="cls-3" points="43 412 31 412 31 411 37 405 43 411 43 412"/><polygon class="cls-3" points="32 412 32 418 36 418 36 415 38 415 38 418 42 418 42 412 32 412"/></g><g id="search"><circle class="cls-4" cx="61.2" cy="11.2" r="4.2"/><line class="cls-5" x1="68.5" y1="18.5" x2="64.6" y2="14.6"/></g><g id="win"><rect class="cls-3" x="6" y="206" width="6" height="6"/><rect class="cls-3" x="13" y="206" width="6" height="6"/><rect class="cls-3" x="6" y="213" width="6" height="6"/><rect class="cls-3" x="13" y="213" width="6" height="6"/></g><g id="media_backward"><polygon class="cls-3" points="29.8 112.5 37 116.5 37 108.4 29.8 112.5"/><polygon class="cls-3" points="36.8 112.5 44 116.5 44 108.4 36.8 112.5"/></g><polygon id="media_play" class="cls-3" points="42 162.5 34 167 34 158 42 162.5"/><g id="media_forward"><polygon class="cls-3" points="44.2 137.5 37 141.5 37 133.4 44.2 137.5"/><polygon class="cls-3" points="37.2 137.5 30 141.5 30 133.4 37.2 137.5"/></g><g id="media-volup"><rect class="cls-3" x="30" y="210" width="3" height="5"/><rect class="cls-3" x="43" y="210" width="1" height="5"/><polygon class="cls-3" points="37 218 33 215 33 210 37 207 38 207 38 218 37 218"/><rect class="cls-3" x="41" y="212" width="5" height="1"/></g><g id="media-voldown"><rect class="cls-3" x="30" y="235" width="3" height="5"/><polygon class="cls-3" points="37 243 33 240 33 235 37 232 38 232 38 243 37 243"/><rect class="cls-3" x="41" y="237" width="5" height="1"/></g><g id="media_mute"><g class="cls-6"><polygon class="cls-3" points="39 257 35 260 32 260 32 265 35 265 39 268 40 268 40 257 39 257"/></g><g class="cls-7"><polygon class="cls-3" points="39 257 35 260 32 260 32 265 35 265 39 268 40 268 40 257 39 257"/></g><line class="cls-2" x1="33" y1="257" x2="42" y2="266"/></g><rect id="media_stop" class="cls-3" x="34" y="184" width="7" height="7"/><g id="mail-2" data-name="mail"><rect class="cls-2" x="55.5" y="32.5" width="14" height="10"/><polyline class="cls-2" points="55.5 32.24 62.5 38 69.5 32.24"/></g><circle class="cls-3" cx="62.5" cy="107" r="2"/><circle class="cls-3" cx="62.5" cy="113" r="2"/><circle class="cls-3" cx="62.5" cy="119" r="2"/><rect class="cls-2" x="57.5" y="56.5" width="10" height="3"/><rect class="cls-2" x="57.5" y="61.5" width="2" height="2"/><rect class="cls-2" x="61.5" y="61.5" width="2" height="2"/><rect class="cls-2" x="57.5" y="65.5" width="2" height="2"/><rect class="cls-2" x="61.5" y="65.5" width="2" height="2"/><rect class="cls-2" x="65.5" y="65.5" width="2" height="2"/><rect class="cls-2" x="65.5" y="61.5" width="2" height="2"/><line class="cls-2" x1="59" y1="134.5" x2="66" y2="134.5"/><line class="cls-2" x1="59" y1="137.5" x2="66" y2="137.5"/><line class="cls-2" x1="59" y1="140.5" x2="66" y2="140.5"/></svg>